<?xml version="1.0" encoding="UTF-8"?>
<svg xmlns="http://www.w3.org/2000/svg" xmlns:xlink="http://www.w3.org/1999/xlink" width="30px" height="30px" viewBox="0 0 30 30" version="1.1">
<g id="surface1">
<path style=" stroke:none;fill-rule:nonzero;fill:rgb(0%,0%,0%);fill-opacity:1;" d="M 11.839844 0 C 5.210938 0.0898438 -0.0859375 5.535156 0 12.160156 C 0.0898438 18.785156 5.535156 24.085938 12.160156 24 C 18.785156 23.910156 24.085938 18.464844 24 11.839844 C 23.910156 5.214844 18.464844 -0.0859375 11.839844 0 Z M 11.804688 19.304688 L 11.738281 19.304688 C 10.71875 19.273438 9.996094 18.519531 10.027344 17.515625 C 10.054688 16.527344 10.792969 15.808594 11.777344 15.808594 L 11.839844 15.8125 C 12.886719 15.84375 13.597656 16.585938 13.570312 17.621094 C 13.539062 18.613281 12.8125 19.304688 11.804688 19.304688 Z M 16.097656 10.785156 C 15.855469 11.125 15.328125 11.550781 14.664062 12.066406 L 13.933594 12.574219 C 13.53125 12.886719 13.289062 13.179688 13.195312 13.46875 C 13.125 13.695312 13.089844 13.757812 13.082031 14.21875 L 13.082031 14.335938 L 10.285156 14.335938 L 10.292969 14.101562 C 10.328125 13.128906 10.351562 12.554688 10.753906 12.082031 C 11.386719 11.339844 12.78125 10.441406 12.839844 10.40625 C 13.042969 10.253906 13.210938 10.082031 13.335938 9.898438 C 13.628906 9.496094 13.757812 9.175781 13.757812 8.863281 C 13.757812 8.429688 13.628906 8.027344 13.375 7.667969 C 13.128906 7.324219 12.664062 7.148438 11.992188 7.148438 C 11.324219 7.148438 10.867188 7.363281 10.59375 7.796875 C 10.3125 8.242188 10.171875 8.710938 10.171875 9.191406 L 10.171875 9.3125 L 7.289062 9.3125 L 7.292969 9.1875 C 7.367188 7.421875 7.996094 6.148438 9.164062 5.40625 C 9.898438 4.933594 10.8125 4.695312 11.878906 4.695312 C 13.273438 4.695312 14.449219 5.035156 15.375 5.703125 C 16.316406 6.378906 16.792969 7.394531 16.792969 8.71875 C 16.792969 9.457031 16.558594 10.152344 16.097656 10.785156 Z M 16.097656 10.785156 "/>
</g>
</svg>
